<svg width="331" height="82" viewBox="0 0 331 82" fill="none" xmlns="http://www.w3.org/2000/svg">
<path d="M31.7653 62.0051C31.6751 62.0502 31.5849 62.0728 31.4947 62.0728C31.4045 62.0728 31.2242 62.0728 30.9536 62.0728C30.3223 62.0728 29.5783 61.96 28.7216 61.7346C27.91 61.5542 27.0983 61.3062 26.2867 60.9906C25.5201 60.72 24.8438 60.4044 24.2576 60.0437C23.7165 59.6829 23.3783 59.3673 23.243 59.0967C23.1979 58.4655 23.1754 57.8116 23.1754 57.1353C23.1754 56.4589 23.1754 55.8051 23.1754 55.1738C23.1754 50.1236 23.5361 44.8479 24.2576 39.3468C25.0241 33.8457 26.2641 27.8937 27.9776 21.4907C28.158 20.8595 28.3383 20.0704 28.5187 19.1235C28.7441 18.1315 28.9696 17.0718 29.1951 15.9445C28.1129 16.8013 26.8278 18.1765 25.3398 20.0704C23.8518 21.9191 22.2736 24.1286 20.6052 26.6988C18.9819 29.2239 17.3361 32.0195 15.6677 35.0857C14.0444 38.1068 12.5564 41.1956 11.2037 44.3519C9.85097 47.4632 8.6786 50.552 7.6866 53.6182C6.73968 56.6844 6.1535 59.5251 5.92804 62.1404C3.76367 61.5091 2.25312 60.8778 1.39638 60.2466C0.584744 59.6153 0.178924 58.8487 0.178924 57.9469C0.178924 57.1353 0.426925 55.9854 0.922928 54.4974C1.41893 53.0094 2.11784 51.2509 3.01966 49.2218C3.92149 47.1927 5.02622 44.9381 6.33386 42.4581C7.64151 39.933 9.08442 37.2275 10.6626 34.3417C12.4663 31.0501 14.2248 27.9613 15.9383 25.0755C17.6968 22.1897 19.4103 19.5744 21.0787 17.2296C22.747 14.8849 24.3703 12.8558 25.9485 11.1423C27.5718 9.42887 29.1725 8.12122 30.7507 7.2194C31.382 7.2194 32.2162 7.37722 33.2533 7.69286C34.3354 8.00849 35.3725 8.39177 36.3645 8.84268C37.4016 9.29359 38.3035 9.76705 39.07 10.2631C39.8817 10.714 40.3326 11.0972 40.4228 11.4129C39.7915 12.6754 39.0475 14.5693 38.1907 17.0944C37.334 19.6195 36.4547 22.4827 35.5529 25.6842C34.6962 28.8857 33.862 32.2901 33.0504 35.8974C32.2838 39.4596 31.6751 42.8865 31.2242 46.1781C32.2613 43.6981 33.4562 41.1279 34.8089 38.4675C36.2067 35.7621 37.6722 33.1017 39.2053 30.4864C40.7384 27.826 42.294 25.2558 43.8722 22.7758C45.4955 20.2958 47.0737 18.0413 48.6068 16.0122C50.1399 13.938 51.5603 12.1343 52.8679 10.6012C54.2206 9.06814 55.4156 7.94086 56.4526 7.2194C57.0839 7.2194 57.9181 7.37722 58.9552 7.69286C60.0374 8.00849 61.0745 8.39177 62.0665 8.84268C63.1036 9.29359 64.0054 9.76705 64.772 10.2631C65.5836 10.714 66.0345 11.0972 66.1247 11.4129C64.6818 13.9831 63.4192 17.1169 62.337 20.8144C61.2548 24.5118 60.3305 28.3897 59.5639 32.4479C58.8425 36.5061 58.2788 40.5417 57.873 44.5548C57.5123 48.5229 57.3319 52.0851 57.3319 55.2414C57.3319 56.2785 57.3319 57.3607 57.3319 58.488C57.3319 59.6153 57.377 60.7877 57.4672 62.0051C56.8359 62.0051 56.0694 61.9149 55.1675 61.7346C54.3108 61.5993 53.4541 61.3964 52.5974 61.1258C51.7857 60.8553 51.0417 60.5397 50.3653 60.1789C49.689 59.8633 49.2155 59.5026 48.945 59.0967C48.8999 58.4655 48.8773 57.8116 48.8773 57.1353C48.8773 56.4589 48.8773 55.8051 48.8773 55.1738C48.8773 50.1236 49.2381 44.8479 49.9595 39.3468C50.7261 33.8457 51.9661 27.8937 53.6795 21.4907C53.8599 20.8595 54.0628 20.0027 54.2883 18.9205C54.5137 17.8384 54.7392 16.7111 54.9646 15.5387C53.7021 16.17 52.2592 17.3874 50.6359 19.1911C49.0577 20.9496 47.4344 23.114 45.766 25.6842C44.1428 28.2093 42.5195 31.0275 40.8962 34.1388C39.318 37.2501 37.8751 40.429 36.5675 43.6756C35.3049 46.877 34.2227 50.0785 33.3209 53.28C32.4642 56.4364 31.9456 59.3447 31.7653 62.0051ZM88.9177 29.6748C89.3686 29.6748 89.8872 29.765 90.4734 29.9453C91.1046 30.0806 91.6683 30.2835 92.1643 30.5541C92.6603 30.7795 93.0661 31.0275 93.3817 31.2981C93.7425 31.5686 93.9228 31.8166 93.9228 32.0421C93.021 33.9359 92.1868 35.8523 91.4203 37.7912C90.6537 39.685 89.9999 41.5112 89.4588 43.2698C88.9177 45.0283 88.4894 46.6741 88.1737 48.2072C87.9032 49.7403 87.7679 51.0705 87.7679 52.1978C87.7679 53.4603 87.9032 54.52 88.1737 55.3767C88.4443 56.1884 88.8952 56.7745 89.5265 57.1353C88.9854 57.496 88.2864 57.7891 87.4297 58.0146C86.573 58.24 85.8064 58.3527 85.1301 58.3527C82.6951 58.3527 81.4777 56.6844 81.4777 53.3476C81.4777 50.7774 82.3344 47.2603 84.0479 42.7963C83.1461 44.8705 82.109 46.832 80.9366 48.6807C79.7642 50.4843 78.5693 52.0851 77.3519 53.4829C76.1344 54.8807 74.8944 56.0305 73.6318 56.9324C72.4144 57.7891 71.2871 58.3076 70.25 58.488C68.5816 58.3978 67.2289 57.6087 66.1918 56.1207C65.1547 54.5876 64.6362 52.6487 64.6362 50.304C64.6362 47.7789 65.1772 45.1185 66.2594 42.3228C67.3416 39.5272 68.7169 36.9345 70.3853 34.5446C72.0987 32.1548 73.9475 30.1708 75.9315 28.5926C77.9155 26.9693 79.8319 26.1126 81.6806 26.0224C82.1315 26.1577 82.6275 26.4282 83.1686 26.834C83.7548 27.2399 84.2959 27.7133 84.7919 28.2544C85.333 28.7955 85.7839 29.3591 86.1446 29.9453C86.5053 30.4864 86.7083 30.9599 86.7533 31.3657C84.9497 31.6362 83.0784 32.5155 81.1395 34.0035C79.2457 35.4915 77.5097 37.2952 75.9315 39.4145C74.3984 41.4887 73.1358 43.7207 72.1438 46.1105C71.1518 48.5003 70.6558 50.7323 70.6558 52.8065C70.6558 53.6633 70.9715 54.2044 71.6027 54.4298C72.9104 54.1593 74.4209 53.0545 76.1344 51.1156C77.8479 49.1316 79.922 46.0879 82.357 41.9847C82.8079 41.173 83.3039 40.2712 83.845 39.2792C84.4312 38.2872 85.0173 37.2501 85.6035 36.1679C86.1897 35.0857 86.7533 34.0035 87.2944 32.9213C87.8806 31.7941 88.4217 30.7119 88.9177 29.6748ZM95.7305 55.6473C95.956 54.3396 96.3393 52.6262 96.8804 50.5069C97.4665 48.3425 98.1429 46.0654 98.9095 43.6756C99.676 41.2407 100.488 38.8057 101.344 36.3708C102.201 33.9359 103.035 31.749 103.847 29.8101C104.433 28.4122 104.952 27.33 105.403 26.5635C105.853 25.7519 106.349 25.0755 106.891 24.5344C107.522 24.6246 108.176 24.7824 108.852 25.0078C109.528 25.2333 110.182 25.5039 110.814 25.8195C111.445 26.1351 112.008 26.4733 112.504 26.834C113 27.1497 113.384 27.4653 113.654 27.781C112.437 29.2239 111.355 30.8697 110.408 32.7184C109.506 34.5672 108.582 36.9345 107.635 39.8203C110.07 37.6559 112.211 35.5817 114.06 33.5977C115.954 31.6137 117.712 29.4042 119.336 26.9693C119.606 26.7439 120.08 26.6311 120.756 26.6311C121.387 26.6311 121.996 26.7439 122.582 26.9693C123.168 27.1497 123.574 27.4202 123.8 27.781C122.988 29.9453 122.582 32.0872 122.582 34.2064C122.582 36.1904 122.875 37.6785 123.462 38.6705C123.416 38.941 123.101 39.4596 122.515 40.2261C121.974 40.9927 121.365 41.7141 120.688 42.3905C119.471 41.7592 118.389 40.9025 117.442 39.8203C116.495 38.693 115.796 37.4755 115.345 36.1679C113.226 37.6559 111.422 39.1214 109.934 40.5643C108.446 41.9621 107.161 43.5403 106.079 45.2989C105.042 47.0123 104.14 48.9963 103.373 51.2509C102.652 53.5054 101.953 56.1884 101.277 59.2996C100.871 59.2546 100.375 59.0967 99.7887 58.8262C99.2476 58.6007 98.684 58.3076 98.0978 57.9469C97.5567 57.5862 97.0607 57.2029 96.6098 56.7971C96.1589 56.3913 95.8658 56.008 95.7305 55.6473ZM150.064 46.5163C149.027 49.808 147.99 52.8065 146.953 55.512C145.916 58.2175 144.811 60.6975 143.639 62.952C142.467 65.2517 141.204 67.3484 139.851 69.2422C138.499 71.1812 137.011 73.0073 135.387 74.7208C133.313 76.8852 131.171 78.531 128.962 79.6583C126.752 80.8307 124.543 81.4168 122.333 81.4168C121.206 81.4168 120.079 81.2816 118.952 81.011C117.869 80.7856 116.855 80.4474 115.908 79.9965C114.916 79.5907 114.059 79.0947 113.338 78.5085C112.571 77.9674 112.03 77.3812 111.714 76.7499C111.714 76.2088 112.03 75.7354 112.661 75.3295C113.202 75.8255 113.653 76.2088 114.014 76.4794C114.375 76.7499 114.736 76.9754 115.096 77.1557C115.412 77.3361 115.773 77.4488 116.178 77.4939C116.539 77.539 116.968 77.5616 117.464 77.5616C120.034 77.5616 122.536 76.795 124.971 75.2619C127.451 73.7739 129.773 71.6321 131.938 68.8364C134.147 66.0859 136.154 62.7266 137.957 58.7586C139.761 54.8356 141.294 50.4392 142.557 45.5694C141.971 46.4712 141.249 47.576 140.392 48.8836C139.536 50.1912 138.589 51.4989 137.552 52.8065C136.515 54.0691 135.432 55.2189 134.305 56.256C133.223 57.2931 132.163 57.992 131.126 58.3527C130.405 58.3076 129.638 58.1498 128.827 57.8793C128.06 57.6538 127.316 57.3156 126.595 56.8647C125.918 56.4138 125.309 55.8727 124.768 55.2414C124.227 54.6102 123.867 53.8887 123.686 53.0771C123.686 51.7694 123.731 50.7323 123.821 49.9658C123.912 49.1541 124.069 48.2749 124.295 47.328C124.701 45.6145 125.287 43.6756 126.053 41.5112C126.865 39.3468 127.789 37.2275 128.827 35.1534C129.909 33.0341 131.081 31.0726 132.344 29.269C133.651 27.4202 135.004 25.9773 136.402 24.9402C136.763 24.9402 137.213 24.9853 137.755 25.0755C138.296 25.1206 138.859 25.2333 139.445 25.4137C140.032 25.594 140.595 25.8195 141.136 26.09C141.678 26.3155 142.151 26.6311 142.557 27.0369C142.061 27.4879 140.979 28.9984 139.31 31.5686C137.642 34.1388 135.793 37.8363 133.764 42.661C133.539 43.157 133.268 43.8785 132.952 44.8254C132.637 45.7723 132.321 46.7643 132.005 47.8014C131.735 48.8385 131.487 49.8531 131.261 50.8451C131.036 51.8371 130.923 52.6262 130.923 53.2123C130.923 53.5731 130.968 53.8436 131.059 54.024C131.194 54.2044 131.307 54.3396 131.397 54.4298C132.208 54.2945 133.291 53.6407 134.643 52.4683C135.996 51.2509 137.529 49.3796 139.243 46.8545C140.325 45.2312 141.317 43.6305 142.219 42.0523C143.12 40.429 144 38.8057 144.856 37.1825C145.758 35.5592 146.683 33.8908 147.63 32.1773C148.576 30.4639 149.591 28.7053 150.673 26.9017C151.259 26.9017 151.891 26.9693 152.567 27.1046C153.243 27.2399 153.897 27.4202 154.528 27.6457C155.16 27.826 155.701 28.0515 156.152 28.322C156.648 28.5475 157.008 28.7955 157.234 29.066C155.836 32.0421 154.528 34.9504 153.311 37.7912C152.094 40.6319 151.011 43.5403 150.064 46.5163ZM176.885 43.7432C176.885 40.5868 177.246 37.4981 177.967 34.477C178.734 31.4108 179.793 28.525 181.146 25.8195C182.499 23.0689 184.1 20.5664 185.948 18.3118C187.842 16.0122 189.894 14.0282 192.103 12.3598C194.358 10.6914 196.748 9.40632 199.273 8.5045C201.798 7.55758 204.391 7.08413 207.051 7.08413C210.162 7.08413 212.575 7.73795 214.288 9.04559C216.047 10.3532 216.926 12.1794 216.926 14.5242C216.926 15.426 216.791 16.3504 216.52 17.2973C216.295 18.2442 215.934 19.1911 215.438 20.138C214.987 21.0398 214.446 21.9191 213.815 22.7758C213.183 23.6326 212.484 24.3766 211.718 25.0078C210.546 24.8275 209.531 24.3089 208.674 23.4522C207.818 22.5504 207.276 21.5133 207.051 20.3409C208.629 19.0333 209.869 17.6805 210.771 16.2827C211.718 14.8398 212.191 13.5322 212.191 12.3598C212.191 10.3758 210.951 9.38377 208.471 9.38377C207.434 9.38377 206.352 9.60923 205.225 10.0601C204.143 10.466 203.038 11.0521 201.911 11.8187C200.783 12.5852 199.679 13.5096 198.596 14.5918C197.559 15.674 196.59 16.8689 195.688 18.1765C189.42 27.1948 186.287 36.4159 186.287 45.8399C186.287 49.1767 186.805 51.8596 187.842 53.8887C188.879 55.9178 190.255 57.1127 191.968 57.4735C193.907 57.0225 196.364 55.7825 199.34 53.7534C202.316 51.7243 205.563 49.0865 209.08 45.8399C209.531 46.2909 209.802 46.7643 209.892 47.2603C208.584 48.9738 207.231 50.6196 205.834 52.1978C204.436 53.776 203.038 55.2189 201.64 56.5265C200.287 57.8342 198.935 58.984 197.582 59.976C196.274 60.968 195.057 61.7346 193.929 62.2757C188.338 62.1855 184.1 60.5847 181.214 57.4735C178.328 54.3622 176.885 49.7854 176.885 43.7432ZM237.996 29.6748C238.447 29.6748 238.965 29.765 239.551 29.9453C240.183 30.0806 240.746 30.2835 241.242 30.5541C241.738 30.7795 242.144 31.0275 242.46 31.2981C242.821 31.5686 243.001 31.8166 243.001 32.0421C242.099 33.9359 241.265 35.8523 240.498 37.7912C239.732 39.685 239.078 41.5112 238.537 43.2698C237.996 45.0283 237.567 46.6741 237.252 48.2072C236.981 49.7403 236.846 51.0705 236.846 52.1978C236.846 53.4603 236.981 54.52 237.252 55.3767C237.522 56.1884 237.973 56.7745 238.605 57.1353C238.063 57.496 237.365 57.7891 236.508 58.0146C235.651 58.24 234.885 58.3527 234.208 58.3527C231.773 58.3527 230.556 56.6844 230.556 53.3476C230.556 50.7774 231.413 47.2603 233.126 42.7963C232.224 44.8705 231.187 46.832 230.015 48.6807C228.842 50.4843 227.647 52.0851 226.43 53.4829C225.212 54.8807 223.972 56.0305 222.71 56.9324C221.492 57.7891 220.365 58.3076 219.328 58.488C217.66 58.3978 216.307 57.6087 215.27 56.1207C214.233 54.5876 213.714 52.6487 213.714 50.304C213.714 47.7789 214.255 45.1185 215.338 42.3228C216.42 39.5272 217.795 36.9345 219.463 34.5446C221.177 32.1548 223.026 30.1708 225.01 28.5926C226.994 26.9693 228.91 26.1126 230.759 26.0224C231.21 26.1577 231.706 26.4282 232.247 26.834C232.833 27.2399 233.374 27.7133 233.87 28.2544C234.411 28.7955 234.862 29.3591 235.223 29.9453C235.583 30.4864 235.786 30.9599 235.831 31.3657C234.028 31.6362 232.157 32.5155 230.218 34.0035C228.324 35.4915 226.588 37.2952 225.01 39.4145C223.476 41.4887 222.214 43.7207 221.222 46.1105C220.23 48.5003 219.734 50.7323 219.734 52.8065C219.734 53.6633 220.05 54.2044 220.681 54.4298C221.988 54.1593 223.499 53.0545 225.212 51.1156C226.926 49.1316 229 46.0879 231.435 41.9847C231.886 41.173 232.382 40.2712 232.923 39.2792C233.509 38.2872 234.095 37.2501 234.682 36.1679C235.268 35.0857 235.831 34.0035 236.373 32.9213C236.959 31.7941 237.5 30.7119 237.996 29.6748ZM246.567 50.6422C246.567 49.0189 246.973 46.7643 247.785 43.8785C248.641 40.9927 249.746 37.8363 251.099 34.4093C252.452 30.9824 253.985 27.4428 255.698 23.7904C257.412 20.138 259.125 16.7336 260.839 13.5772C262.597 10.4209 264.265 7.69286 265.844 5.39321C267.467 3.09356 268.842 1.53792 269.969 0.726281C270.601 0.771371 271.277 1.04192 271.999 1.53792C272.765 2.03392 273.464 2.64265 274.095 3.36411C274.727 4.04048 275.245 4.76193 275.651 5.52848C276.102 6.29503 276.327 6.99395 276.327 7.62522C274.298 9.2485 272.224 11.3452 270.105 13.9154C268.031 16.4405 266.047 19.2362 264.153 22.3024C262.259 25.3235 260.5 28.5475 258.877 31.9744C257.299 35.3563 255.969 38.693 254.887 41.9847C256.329 39.5046 257.84 37.2501 259.418 35.221C260.996 33.1919 262.575 31.4559 264.153 30.013C265.731 28.57 267.264 27.4653 268.752 26.6988C270.285 25.8871 271.728 25.4588 273.081 25.4137C275.065 26.8566 276.057 28.773 276.057 31.1628C276.057 32.6057 275.764 34.0712 275.178 35.5592C274.591 37.0021 273.802 38.3548 272.81 39.6174C271.863 40.8348 270.759 41.8945 269.496 42.7963C268.279 43.653 266.993 44.2167 265.641 44.4872C266.092 46.0654 266.655 47.6661 267.332 49.2894C268.053 50.9127 268.887 52.4909 269.834 54.024C270.826 55.5571 271.931 56.9775 273.148 58.2851C274.411 59.5927 275.831 60.6975 277.41 61.5993C277.184 62.0502 276.846 62.5011 276.395 62.952C275.944 63.4029 275.403 63.7862 274.772 64.1019C274.14 64.4626 273.442 64.7331 272.675 64.9135C271.954 65.1389 271.232 65.2517 270.511 65.2517C269.293 65.2517 268.143 64.6429 267.061 63.4255C266.024 62.208 265.077 60.4495 264.22 58.1498C263.544 56.3011 262.89 54.0916 262.259 51.5214C261.628 48.9512 261.064 46.2683 260.568 43.4727C261.199 43.0668 261.988 42.4807 262.935 41.7141C263.882 40.9025 264.874 39.9781 265.911 38.941C269.879 35.1083 271.863 31.7941 271.863 28.9984C271.863 28.6377 271.615 28.4573 271.119 28.4573C270.217 28.5024 269.158 28.9308 267.94 29.7424C266.723 30.5541 265.415 31.6813 264.017 33.1243C262.665 34.5672 261.267 36.2581 259.824 38.197C258.426 40.1359 257.073 42.2327 255.766 44.4872C255.225 45.389 254.729 46.4261 254.278 47.5985C253.827 48.7709 253.421 49.9883 253.06 51.2509C252.745 52.4683 252.497 53.6858 252.316 54.9033C252.136 56.1207 252.046 57.248 252.046 58.2851C252.046 58.9164 252.113 59.4349 252.249 59.8407C250.851 59.7055 249.994 59.3447 249.678 58.7586C249.318 58.2175 249.002 57.7665 248.732 57.4058C248.506 57.0902 248.258 56.8196 247.988 56.5942C247.582 56.2785 247.244 55.6022 246.973 54.5651C246.702 53.528 246.567 52.2203 246.567 50.6422ZM303.87 28.9984C303.689 31.7941 303.193 34.2064 302.382 36.2355C301.57 38.2195 300.398 39.9781 298.865 41.5112C297.377 42.9992 295.55 44.3519 293.386 45.5694C291.222 46.7869 288.697 47.9592 285.811 49.0865C285.811 49.3571 285.788 49.6501 285.743 49.9658C285.743 50.2363 285.743 50.5294 285.743 50.8451C285.743 51.4312 285.788 52.04 285.878 52.6713C285.969 53.3025 286.126 53.8887 286.352 54.4298C286.577 54.9709 286.893 55.4218 287.299 55.7825C287.705 56.0982 288.223 56.256 288.854 56.256C290.072 56.256 291.267 55.9854 292.439 55.4444C293.611 54.9033 294.716 54.2494 295.753 53.4829C296.836 52.6713 297.828 51.8145 298.729 50.9127C299.676 49.9658 300.51 49.1091 301.232 48.3425C301.683 48.7483 302.066 49.1316 302.382 49.4923C300.353 52.1978 298.121 54.4524 295.686 56.256C293.296 58.0146 291.019 59.1418 288.854 59.6378C285.743 59.2771 283.308 58.1498 281.55 56.256C279.836 54.3171 278.979 51.9949 278.979 49.2894C278.979 47.4407 279.227 45.5694 279.723 43.6756C280.265 41.7367 280.986 39.8879 281.888 38.1294C282.835 36.3257 283.917 34.6348 285.134 33.0566C286.397 31.4784 287.727 30.1031 289.125 28.9308C290.568 27.7584 292.033 26.834 293.521 26.1577C295.054 25.4813 296.565 25.1431 298.053 25.1431C300.127 25.4137 302.066 26.6988 303.87 28.9984ZM299.203 31.2304C297.985 31.4108 296.723 31.9068 295.415 32.7184C294.107 33.5301 292.867 34.6123 291.695 35.965C290.568 37.3177 289.531 38.8959 288.584 40.6996C287.637 42.5032 286.893 44.4421 286.352 46.5163C289.959 44.7127 292.958 42.5032 295.348 39.8879C297.737 37.2275 299.022 34.3417 299.203 31.2304ZM330.336 30.0806C330.291 30.9373 330.133 31.8392 329.862 32.7861C329.637 33.6879 329.344 34.5221 328.983 35.2886C328.622 36.0101 328.239 36.6188 327.833 37.1148C327.427 37.6108 327.044 37.8588 326.683 37.8588C326.187 37.8137 325.894 37.4755 325.804 36.8443C325.804 36.709 325.849 36.5061 325.939 36.2355C326.075 35.9199 326.21 35.5817 326.345 35.221C326.48 34.8603 326.593 34.4995 326.683 34.1388C326.819 33.7781 326.886 33.4624 326.886 33.1919C326.886 32.5606 326.728 32.0421 326.413 31.6362C326.142 31.1853 325.759 30.9599 325.263 30.9599C323.459 30.9599 322.084 32.0872 321.137 34.3417C320.19 36.5963 319.717 39.9105 319.717 44.2843C319.717 44.7352 319.739 45.0058 319.784 45.0959C320.731 45.0509 321.566 45.0283 322.287 45.0283C323.054 44.9832 323.798 44.9607 324.519 44.9607C324.564 45.0509 324.587 45.2312 324.587 45.5018C324.587 45.9076 324.496 46.2007 324.316 46.381C323.279 46.6065 322.445 46.8094 321.814 46.9898C321.227 47.125 320.776 47.2603 320.461 47.3956C320.145 47.5309 319.942 47.6887 319.852 47.869C319.807 48.0043 319.784 48.2072 319.784 48.4778C319.784 48.8385 319.784 49.1992 319.784 49.56C319.83 49.9207 319.852 50.3716 319.852 50.9127C319.852 54.7004 318.815 57.744 316.741 60.0437C314.712 62.3433 311.871 63.6735 308.219 64.0342C307.587 63.9891 306.933 63.8088 306.257 63.4931C305.581 63.1775 304.927 62.7717 304.296 62.2757C303.709 61.7797 303.191 61.216 302.74 60.5847C302.289 59.9986 301.973 59.3898 301.793 58.7586C301.793 57.0451 302.154 55.4218 302.875 53.8887C303.597 52.3105 304.566 50.9352 305.784 49.7629C307.046 48.5454 308.512 47.576 310.18 46.8545C311.893 46.0879 313.742 45.637 315.726 45.5018C315.726 44.3745 315.614 43.2698 315.388 42.1876C315.163 41.1054 314.915 40.0683 314.644 39.0763C314.419 38.0392 314.193 37.0472 313.968 36.1003C313.742 35.1083 313.629 34.1388 313.629 33.1919C313.629 31.9744 313.877 30.7795 314.373 29.6071C314.869 28.3897 315.523 27.285 316.335 26.2929C317.147 25.2558 318.094 24.3766 319.176 23.6551C320.258 22.9337 321.385 22.4377 322.558 22.1671C323.054 22.3024 323.707 22.7082 324.519 23.3846C325.376 24.0158 326.21 24.7373 327.022 25.5489C327.833 26.3606 328.555 27.1948 329.186 28.0515C329.817 28.8631 330.2 29.5395 330.336 30.0806ZM308.016 60.9229C309.098 60.472 310.112 59.8182 311.059 58.9615C312.051 58.1047 312.908 57.1353 313.629 56.0531C314.351 54.9709 314.915 53.8211 315.32 52.6036C315.771 51.3862 315.997 50.1912 315.997 49.0189C315.095 49.1541 314.103 49.5825 313.021 50.304C311.939 50.9803 310.924 51.8145 309.977 52.8065C309.03 53.7534 308.241 54.7454 307.61 55.7825C306.979 56.8196 306.663 57.7215 306.663 58.488C306.663 59.48 307.114 60.2917 308.016 60.9229Z" fill="#522C25"/>
</svg>
